<svg viewBox="0 0 300 200" xmlns="http://www.w3.org/2000/svg">
  <!-- F체llhorn Icon - Universal mit Cyberpunk-Elementen -->
  <!-- Farben: #00a86b (Gr체n) + #e6960a (Gold) -->
  
  <g transform="translate(25, 20)">
    <!-- Corner brackets - doppelt f체r mehr Pr채senz -->
    <path d="M -5,-8 L -20,-8 L -20,7" fill="none" stroke="#00a86b" stroke-width="2.5"/>
    <path d="M 245,168 L 260,168 L 260,153" fill="none" stroke="#e6960a" stroke-width="2.5"/>
    <path d="M 5,2 L -5,2 L -5,12" fill="none" stroke="#00a86b" stroke-width="1.5" opacity="0.5"/>
    <path d="M 235,158 L 245,158 L 245,148" fill="none" stroke="#e6960a" stroke-width="1.5" opacity="0.5"/>
    
    <!-- Scanlines -->
    <line x1="-10" y1="35" x2="250" y2="35" stroke="#00a86b" stroke-width="0.5" opacity="0.3"/>
    <line x1="-10" y1="70" x2="250" y2="70" stroke="#e6960a" stroke-width="0.5" opacity="0.25"/>
    <line x1="-10" y1="105" x2="250" y2="105" stroke="#00a86b" stroke-width="0.5" opacity="0.2"/>
    <line x1="-10" y1="140" x2="250" y2="140" stroke="#e6960a" stroke-width="0.5" opacity="0.25"/>
    
    <!-- Glitch lines -->
    <line x1="50" y1="25" x2="90" y2="25" stroke="#e6960a" stroke-width="1" opacity="0.45"/>
    <line x1="150" y1="130" x2="200" y2="130" stroke="#00a86b" stroke-width="1" opacity="0.45"/>
    
    <!-- Horn - 5 hexagons -->
    <polygon points="10,55 18,59 18,69 10,73 2,69 2,59" fill="none" stroke="#00a86b" stroke-width="2"/>
    <polygon points="28,48 38,54 38,66 28,72 18,66 18,54" fill="#00a86b" opacity="0.55"/>
    <polygon points="48,58 58,64 58,76 48,82 38,76 38,64" fill="#e6960a" opacity="0.65"/>
    <polygon points="65,42 78,50 78,66 65,74 52,66 52,50" fill="#00a86b" opacity="0.75"/>
    <polygon points="88,55 101,63 101,79 88,87 75,79 75,63" fill="#e6960a" opacity="0.85"/>
    
    <!-- Apple mit Glitch-Offset -->
    <circle cx="131" cy="56" r="22" fill="#00a86b" opacity="0.15"/>
    <circle cx="130" cy="55" r="22" fill="#e6960a"/>
    <path d="M 130,33 L 130,24 Q 134,21 140,26" fill="none" stroke="#00a86b" stroke-width="2"/>
    <ellipse cx="142" cy="27" rx="7" ry="3" fill="#00a86b" transform="rotate(20 142 27)"/>
    <!-- Barcode -->
    <line x1="120" y1="45" x2="120" y2="68" stroke="#00a86b" stroke-width="2" opacity="0.25"/>
    <line x1="130" y1="42" x2="130" y2="72" stroke="#00a86b" stroke-width="2.5" opacity="0.25"/>
    <line x1="140" y1="45" x2="140" y2="68" stroke="#00a86b" stroke-width="2" opacity="0.25"/>
    
    <!-- Carrot mit Glitch-Offset -->
    <polygon points="176,51 196,96 156,96" fill="#00a86b" opacity="0.15"/>
    <polygon points="175,50 195,95 155,95" fill="#e6960a"/>
    <line x1="168" y1="48" x2="175" y2="58" stroke="#00a86b" stroke-width="2.5"/>
    <line x1="175" y1="42" x2="175" y2="58" stroke="#00a86b" stroke-width="2.5"/>
    <line x1="182" y1="48" x2="175" y2="58" stroke="#00a86b" stroke-width="2.5"/>
    
    <!-- Spilling items -->
    <circle cx="205" cy="75" r="10" fill="#00a86b" opacity="0.85"/>
    <circle cx="145" cy="110" r="7" fill="#e6960a" opacity="0.75"/>
    <circle cx="220" cy="100" r="5" fill="#00a86b" opacity="0.7"/>
    <circle cx="190" cy="115" r="4" fill="#e6960a" opacity="0.65"/>
    
    <!-- Digitale Partikel -->
    <circle cx="15" cy="35" r="1.5" fill="#00a86b" opacity="0.6"/>
    <circle cx="235" cy="45" r="1.5" fill="#e6960a" opacity="0.6"/>
    <circle cx="5" cy="100" r="1" fill="#e6960a" opacity="0.5"/>
    <circle cx="240" cy="120" r="1" fill="#00a86b" opacity="0.5"/>
    <circle cx="115" cy="145" r="1.5" fill="#00a86b" opacity="0.5"/>
    <rect x="225" y="80" width="3" height="3" fill="#e6960a" opacity="0.4"/>
    <rect x="10" y="125" width="2" height="2" fill="#00a86b" opacity="0.4"/>
  </g>
</svg>