<svg xmlns="http://www.w3.org/2000/svg" viewBox="0 0 100 100" width="512" height="512">
  <defs>
    <linearGradient id="circleGradLight" x1="0%" y1="0%" x2="100%" y2="100%">
      <stop offset="0%" style="stop-color:#7CB342"/>
      <stop offset="50%" style="stop-color:#9CAF88"/>
      <stop offset="100%" style="stop-color:#B8D4A8"/>
    </linearGradient>
    <linearGradient id="hornGradLight" x1="0%" y1="0%" x2="100%" y2="100%">
      <stop offset="0%" style="stop-color:#F5D76E"/>
      <stop offset="100%" style="stop-color:#E6A832"/>
    </linearGradient>
  </defs>
  
  <!-- Kreisbogen -->
  <path d="M 50 8 A 42 42 0 1 1 8 50" 
        fill="none" 
        stroke="url(#circleGradLight)" 
        stroke-width="7"
        stroke-linecap="round"/>
  
  <!-- Füllhorn -->
  <path d="M 50 8 
           C 58 18, 62 28, 58 42
           C 54 56, 46 68, 32 75
           L 28 72
           C 40 66, 48 56, 52 44
           C 56 32, 54 22, 48 12
           Z" 
        fill="url(#hornGradLight)"/>
  
  <!-- Zwei Früchte -->
  <circle cx="24" cy="76" r="8" fill="#9CAF88"/>
  <circle cx="40" cy="80" r="7" fill="#E07A5F"/>
  
  <!-- Blatt -->
  <path d="M 54 22 Q 65 18 70 28 Q 62 36 54 22" fill="#9CAF88"/>
</svg>
